<svg width="477" height="148" viewBox="0 0 477 148" fill="none" xmlns="http://www.w3.org/2000/svg">
<path d="M15.2821 39.388C15.2821 41.728 15.5421 44.016 16.0621 46.252C16.6341 48.436 17.5181 50.412 18.7141 52.18C19.9101 53.948 21.4701 55.378 23.3941 56.47C25.3181 57.51 27.6581 58.03 30.4141 58.03C33.1701 58.03 35.5101 57.51 37.4341 56.47C39.3581 55.378 40.9181 53.948 42.1141 52.18C43.3101 50.412 44.1681 48.436 44.6881 46.252C45.2601 44.016 45.5461 41.728 45.5461 39.388C45.5461 36.944 45.2601 34.578 44.6881 32.29C44.1681 30.002 43.3101 27.974 42.1141 26.206C40.9181 24.386 39.3581 22.956 37.4341 21.916C35.5101 20.824 33.1701 20.278 30.4141 20.278C27.6581 20.278 25.3181 20.824 23.3941 21.916C21.4701 22.956 19.9101 24.386 18.7141 26.206C17.5181 27.974 16.6341 30.002 16.0621 32.29C15.5421 34.578 15.2821 36.944 15.2821 39.388ZM3.03614 39.388C3.03614 35.228 3.66014 31.38 4.90814 27.844C6.15614 24.256 7.95014 21.136 10.2901 18.484C12.6301 15.832 15.4901 13.752 18.8701 12.244C22.3021 10.736 26.1501 9.982 30.4141 9.982C34.7301 9.982 38.5781 10.736 41.9581 12.244C45.3381 13.752 48.1981 15.832 50.5381 18.484C52.8781 21.136 54.6721 24.256 55.9201 27.844C57.1681 31.38 57.7921 35.228 57.7921 39.388C57.7921 43.444 57.1681 47.24 55.9201 50.776C54.6721 54.26 52.8781 57.302 50.5381 59.902C48.1981 62.502 45.3381 64.556 41.9581 66.064C38.5781 67.52 34.7301 68.248 30.4141 68.248C26.1501 68.248 22.3021 67.52 18.8701 66.064C15.4901 64.556 12.6301 62.502 10.2901 59.902C7.95014 57.302 6.15614 54.26 4.90814 50.776C3.66014 47.24 3.03614 43.444 3.03614 39.388ZM78.4091 37.516H87.9251C89.3291 37.516 90.6811 37.412 91.9811 37.204C93.2811 36.996 94.4251 36.606 95.4131 36.034C96.4011 35.41 97.1811 34.552 97.7531 33.46C98.3771 32.368 98.6891 30.938 98.6891 29.17C98.6891 27.402 98.3771 25.972 97.7531 24.88C97.1811 23.788 96.4011 22.956 95.4131 22.384C94.4251 21.76 93.2811 21.344 91.9811 21.136C90.6811 20.928 89.3291 20.824 87.9251 20.824H78.4091V37.516ZM66.1631 11.308H91.2791C94.7631 11.308 97.7271 11.828 100.171 12.868C102.615 13.856 104.591 15.182 106.099 16.846C107.659 18.51 108.777 20.408 109.453 22.54C110.181 24.672 110.545 26.882 110.545 29.17C110.545 31.406 110.181 33.616 109.453 35.8C108.777 37.932 107.659 39.83 106.099 41.494C104.591 43.158 102.615 44.51 100.171 45.55C97.7271 46.538 94.7631 47.032 91.2791 47.032H78.4091V67H66.1631V11.308ZM130.513 21.604H113.821V11.308H159.451V21.604H142.759V67H130.513V21.604ZM165.872 11.308H178.118V67H165.872V11.308ZM226.004 30.028C225.796 28.624 225.328 27.35 224.6 26.206C223.872 25.01 222.962 23.97 221.87 23.086C220.778 22.202 219.53 21.526 218.126 21.058C216.774 20.538 215.344 20.278 213.836 20.278C211.08 20.278 208.74 20.824 206.816 21.916C204.892 22.956 203.332 24.386 202.136 26.206C200.94 27.974 200.056 30.002 199.484 32.29C198.964 34.578 198.704 36.944 198.704 39.388C198.704 41.728 198.964 44.016 199.484 46.252C200.056 48.436 200.94 50.412 202.136 52.18C203.332 53.948 204.892 55.378 206.816 56.47C208.74 57.51 211.08 58.03 213.836 58.03C217.58 58.03 220.492 56.886 222.572 54.598C224.704 52.31 226.004 49.294 226.472 45.55H238.328C238.016 49.034 237.21 52.18 235.91 54.988C234.61 57.796 232.894 60.188 230.762 62.164C228.63 64.14 226.134 65.648 223.274 66.688C220.414 67.728 217.268 68.248 213.836 68.248C209.572 68.248 205.724 67.52 202.292 66.064C198.912 64.556 196.052 62.502 193.712 59.902C191.372 57.302 189.578 54.26 188.33 50.776C187.082 47.24 186.458 43.444 186.458 39.388C186.458 35.228 187.082 31.38 188.33 27.844C189.578 24.256 191.372 21.136 193.712 18.484C196.052 15.832 198.912 13.752 202.292 12.244C205.724 10.736 209.572 9.982 213.836 9.982C216.904 9.982 219.79 10.424 222.494 11.308C225.25 12.192 227.694 13.492 229.826 15.208C232.01 16.872 233.804 18.952 235.208 21.448C236.612 23.944 237.496 26.804 237.86 30.028H226.004ZM260.73 45.472H275.16L268.14 25.036H267.984L260.73 45.472ZM261.9 11.308H274.458L295.284 67H282.57L278.358 54.598H257.532L253.164 67H240.84L261.9 11.308ZM5.45414 85.308H17.7001V141H5.45414V85.308ZM28.4581 85.308H40.6261L63.87 122.67H64.0261V85.308H75.4921V141H63.2461L40.0801 103.716H39.9241V141H28.4581V85.308ZM98.5185 130.704H109.439C111.207 130.704 112.923 130.418 114.587 129.846C116.251 129.274 117.733 128.338 119.033 127.038C120.333 125.686 121.373 123.944 122.153 121.812C122.933 119.68 123.323 117.08 123.323 114.012C123.323 111.204 123.037 108.682 122.465 106.446C121.945 104.158 121.061 102.208 119.813 100.596C118.565 98.984 116.901 97.762 114.821 96.93C112.793 96.046 110.271 95.604 107.255 95.604H98.5185V130.704ZM86.2725 85.308H110.297C113.885 85.308 117.213 85.88 120.281 87.024C123.401 88.168 126.079 89.884 128.315 92.172C130.603 94.46 132.371 97.32 133.619 100.752C134.919 104.184 135.569 108.214 135.569 112.842C135.569 116.898 135.049 120.642 134.009 124.074C132.969 127.506 131.383 130.47 129.251 132.966C127.171 135.462 124.545 137.438 121.373 138.894C118.253 140.298 114.561 141 110.297 141H86.2725V85.308ZM191.355 119.94C191.355 127.48 189.249 133.096 185.037 136.788C180.825 140.428 175.001 142.248 167.565 142.248C160.025 142.248 154.175 140.428 150.015 136.788C145.907 133.148 143.853 127.532 143.853 119.94V85.308H156.099V119.94C156.099 121.448 156.229 122.93 156.489 124.386C156.749 125.842 157.295 127.142 158.127 128.286C158.959 129.378 160.103 130.288 161.559 131.016C163.067 131.692 165.069 132.03 167.565 132.03C171.933 132.03 174.949 131.068 176.613 129.144C178.277 127.168 179.109 124.1 179.109 119.94V85.308H191.355V119.94ZM210.247 122.514C210.247 124.386 210.585 125.972 211.261 127.272C211.937 128.572 212.821 129.638 213.913 130.47C215.057 131.25 216.383 131.848 217.891 132.264C219.399 132.628 220.959 132.81 222.571 132.81C223.663 132.81 224.833 132.732 226.081 132.576C227.329 132.368 228.499 132.004 229.591 131.484C230.683 130.964 231.593 130.262 232.321 129.378C233.049 128.442 233.413 127.272 233.413 125.868C233.413 124.36 232.919 123.138 231.931 122.202C230.995 121.266 229.747 120.486 228.187 119.862C226.627 119.238 224.859 118.692 222.883 118.224C220.907 117.756 218.905 117.236 216.877 116.664C214.797 116.144 212.769 115.52 210.793 114.792C208.817 114.012 207.049 113.024 205.489 111.828C203.929 110.632 202.655 109.15 201.667 107.382C200.731 105.562 200.263 103.378 200.263 100.83C200.263 97.97 200.861 95.5 202.057 93.42C203.305 91.288 204.917 89.52 206.893 88.116C208.869 86.712 211.105 85.672 213.601 84.996C216.097 84.32 218.593 83.982 221.089 83.982C224.001 83.982 226.783 84.32 229.435 84.996C232.139 85.62 234.531 86.66 236.611 88.116C238.691 89.572 240.329 91.444 241.525 93.732C242.773 95.968 243.397 98.698 243.397 101.922H231.541C231.437 100.258 231.073 98.88 230.449 97.788C229.877 96.696 229.097 95.838 228.109 95.214C227.121 94.59 225.977 94.148 224.677 93.888C223.429 93.628 222.051 93.498 220.543 93.498C219.555 93.498 218.567 93.602 217.579 93.81C216.591 94.018 215.681 94.382 214.849 94.902C214.069 95.422 213.419 96.072 212.899 96.852C212.379 97.632 212.119 98.62 212.119 99.816C212.119 100.908 212.327 101.792 212.743 102.468C213.159 103.144 213.965 103.768 215.161 104.34C216.409 104.912 218.099 105.484 220.231 106.056C222.415 106.628 225.249 107.356 228.733 108.24C229.773 108.448 231.203 108.838 233.023 109.41C234.895 109.93 236.741 110.788 238.561 111.984C240.381 113.18 241.941 114.792 243.241 116.82C244.593 118.796 245.269 121.344 245.269 124.464C245.269 127.012 244.775 129.378 243.787 131.562C242.799 133.746 241.317 135.644 239.341 137.256C237.417 138.816 234.999 140.038 232.087 140.922C229.227 141.806 225.899 142.248 222.103 142.248C219.035 142.248 216.045 141.858 213.133 141.078C210.273 140.35 207.725 139.18 205.489 137.568C203.305 135.956 201.563 133.902 200.263 131.406C198.963 128.91 198.339 125.946 198.391 122.514H210.247ZM264.88 95.604H248.188V85.308H293.818V95.604H277.126V141H264.88V95.604ZM312.485 110.502H325.901C328.709 110.502 330.815 109.878 332.219 108.63C333.623 107.382 334.325 105.354 334.325 102.546C334.325 99.842 333.623 97.892 332.219 96.696C330.815 95.448 328.709 94.824 325.901 94.824H312.485V110.502ZM300.239 85.308H330.269C332.765 85.308 335.001 85.724 336.977 86.556C339.005 87.336 340.721 88.428 342.125 89.832C343.581 91.236 344.673 92.874 345.401 94.746C346.181 96.566 346.571 98.542 346.571 100.674C346.571 103.95 345.869 106.784 344.465 109.176C343.113 111.568 340.877 113.388 337.757 114.636V114.792C339.265 115.208 340.513 115.858 341.501 116.742C342.489 117.574 343.295 118.588 343.919 119.784C344.543 120.928 344.985 122.202 345.245 123.606C345.557 125.01 345.765 126.414 345.869 127.818C345.921 128.702 345.973 129.742 346.025 130.938C346.077 132.134 346.155 133.356 346.259 134.604C346.415 135.852 346.623 137.048 346.883 138.192C347.195 139.284 347.637 140.22 348.209 141H335.963C335.287 139.232 334.871 137.126 334.715 134.682C334.559 132.238 334.325 129.898 334.013 127.662C333.597 124.75 332.713 122.618 331.361 121.266C330.009 119.914 327.799 119.238 324.731 119.238H312.485V141H300.239V85.308ZM356.53 85.308H368.776V141H356.53V85.308ZM379.534 85.308H421.186V95.604H391.78V107.538H418.768V117.054H391.78V130.704H421.81V141H379.534V85.308ZM438.458 122.514C438.458 124.386 438.796 125.972 439.472 127.272C440.148 128.572 441.032 129.638 442.124 130.47C443.268 131.25 444.594 131.848 446.102 132.264C447.61 132.628 449.17 132.81 450.782 132.81C451.874 132.81 453.044 132.732 454.292 132.576C455.54 132.368 456.71 132.004 457.802 131.484C458.894 130.964 459.804 130.262 460.532 129.378C461.26 128.442 461.624 127.272 461.624 125.868C461.624 124.36 461.13 123.138 460.142 122.202C459.206 121.266 457.958 120.486 456.398 119.862C454.838 119.238 453.07 118.692 451.094 118.224C449.118 117.756 447.116 117.236 445.088 116.664C443.008 116.144 440.98 115.52 439.004 114.792C437.028 114.012 435.26 113.024 433.7 111.828C432.14 110.632 430.866 109.15 429.878 107.382C428.942 105.562 428.474 103.378 428.474 100.83C428.474 97.97 429.072 95.5 430.268 93.42C431.516 91.288 433.128 89.52 435.104 88.116C437.08 86.712 439.316 85.672 441.812 84.996C444.308 84.32 446.804 83.982 449.3 83.982C452.212 83.982 454.994 84.32 457.646 84.996C460.35 85.62 462.742 86.66 464.822 88.116C466.902 89.572 468.54 91.444 469.736 93.732C470.984 95.968 471.608 98.698 471.608 101.922H459.752C459.648 100.258 459.284 98.88 458.66 97.788C458.088 96.696 457.308 95.838 456.32 95.214C455.332 94.59 454.188 94.148 452.888 93.888C451.64 93.628 450.262 93.498 448.754 93.498C447.766 93.498 446.778 93.602 445.79 93.81C444.802 94.018 443.892 94.382 443.06 94.902C442.28 95.422 441.63 96.072 441.11 96.852C440.59 97.632 440.33 98.62 440.33 99.816C440.33 100.908 440.538 101.792 440.954 102.468C441.37 103.144 442.176 103.768 443.372 104.34C444.62 104.912 446.31 105.484 448.442 106.056C450.626 106.628 453.46 107.356 456.944 108.24C457.984 108.448 459.414 108.838 461.234 109.41C463.106 109.93 464.952 110.788 466.772 111.984C468.592 113.18 470.152 114.792 471.452 116.82C472.804 118.796 473.48 121.344 473.48 124.464C473.48 127.012 472.986 129.378 471.998 131.562C471.01 133.746 469.528 135.644 467.552 137.256C465.628 138.816 463.21 140.038 460.298 140.922C457.438 141.806 454.11 142.248 450.314 142.248C447.246 142.248 444.256 141.858 441.344 141.078C438.484 140.35 435.936 139.18 433.7 137.568C431.516 135.956 429.774 133.902 428.474 131.406C427.174 128.91 426.55 125.946 426.602 122.514H438.458Z" fill="white"/>
</svg>
