<svg width="665" height="148" viewBox="0 0 665 148" fill="none" xmlns="http://www.w3.org/2000/svg">
<path d="M203.282 39.388C203.282 41.728 203.542 44.016 204.062 46.252C204.634 48.436 205.518 50.412 206.714 52.18C207.91 53.948 209.47 55.378 211.394 56.47C213.318 57.51 215.658 58.03 218.414 58.03C221.17 58.03 223.51 57.51 225.434 56.47C227.358 55.378 228.918 53.948 230.114 52.18C231.31 50.412 232.168 48.436 232.688 46.252C233.26 44.016 233.546 41.728 233.546 39.388C233.546 36.944 233.26 34.578 232.688 32.29C232.168 30.002 231.31 27.974 230.114 26.206C228.918 24.386 227.358 22.956 225.434 21.916C223.51 20.824 221.17 20.278 218.414 20.278C215.658 20.278 213.318 20.824 211.394 21.916C209.47 22.956 207.91 24.386 206.714 26.206C205.518 27.974 204.634 30.002 204.062 32.29C203.542 34.578 203.282 36.944 203.282 39.388ZM191.036 39.388C191.036 35.228 191.66 31.38 192.908 27.844C194.156 24.256 195.95 21.136 198.29 18.484C200.63 15.832 203.49 13.752 206.87 12.244C210.302 10.736 214.15 9.982 218.414 9.982C222.73 9.982 226.578 10.736 229.958 12.244C233.338 13.752 236.198 15.832 238.538 18.484C240.878 21.136 242.672 24.256 243.92 27.844C245.168 31.38 245.792 35.228 245.792 39.388C245.792 43.444 245.168 47.24 243.92 50.776C242.672 54.26 240.878 57.302 238.538 59.902C236.198 62.502 233.338 64.556 229.958 66.064C226.578 67.52 222.73 68.248 218.414 68.248C214.15 68.248 210.302 67.52 206.87 66.064C203.49 64.556 200.63 62.502 198.29 59.902C195.95 57.302 194.156 54.26 192.908 50.776C191.66 47.24 191.036 43.444 191.036 39.388ZM266.409 37.516H275.925C277.329 37.516 278.681 37.412 279.981 37.204C281.281 36.996 282.425 36.606 283.413 36.034C284.401 35.41 285.181 34.552 285.753 33.46C286.377 32.368 286.689 30.938 286.689 29.17C286.689 27.402 286.377 25.972 285.753 24.88C285.181 23.788 284.401 22.956 283.413 22.384C282.425 21.76 281.281 21.344 279.981 21.136C278.681 20.928 277.329 20.824 275.925 20.824H266.409V37.516ZM254.163 11.308H279.279C282.763 11.308 285.727 11.828 288.171 12.868C290.615 13.856 292.591 15.182 294.099 16.846C295.659 18.51 296.777 20.408 297.453 22.54C298.181 24.672 298.545 26.882 298.545 29.17C298.545 31.406 298.181 33.616 297.453 35.8C296.777 37.932 295.659 39.83 294.099 41.494C292.591 43.158 290.615 44.51 288.171 45.55C285.727 46.538 282.763 47.032 279.279 47.032H266.409V67H254.163V11.308ZM318.513 21.604H301.821V11.308H347.451V21.604H330.759V67H318.513V21.604ZM353.872 11.308H366.118V67H353.872V11.308ZM414.004 30.028C413.796 28.624 413.328 27.35 412.6 26.206C411.872 25.01 410.962 23.97 409.87 23.086C408.778 22.202 407.53 21.526 406.126 21.058C404.774 20.538 403.344 20.278 401.836 20.278C399.08 20.278 396.74 20.824 394.816 21.916C392.892 22.956 391.332 24.386 390.136 26.206C388.94 27.974 388.056 30.002 387.484 32.29C386.964 34.578 386.704 36.944 386.704 39.388C386.704 41.728 386.964 44.016 387.484 46.252C388.056 48.436 388.94 50.412 390.136 52.18C391.332 53.948 392.892 55.378 394.816 56.47C396.74 57.51 399.08 58.03 401.836 58.03C405.58 58.03 408.492 56.886 410.572 54.598C412.704 52.31 414.004 49.294 414.472 45.55H426.328C426.016 49.034 425.21 52.18 423.91 54.988C422.61 57.796 420.894 60.188 418.762 62.164C416.63 64.14 414.134 65.648 411.274 66.688C408.414 67.728 405.268 68.248 401.836 68.248C397.572 68.248 393.724 67.52 390.292 66.064C386.912 64.556 384.052 62.502 381.712 59.902C379.372 57.302 377.578 54.26 376.33 50.776C375.082 47.24 374.458 43.444 374.458 39.388C374.458 35.228 375.082 31.38 376.33 27.844C377.578 24.256 379.372 21.136 381.712 18.484C384.052 15.832 386.912 13.752 390.292 12.244C393.724 10.736 397.572 9.982 401.836 9.982C404.904 9.982 407.79 10.424 410.494 11.308C413.25 12.192 415.694 13.492 417.826 15.208C420.01 16.872 421.804 18.952 423.208 21.448C424.612 23.944 425.496 26.804 425.86 30.028H414.004ZM448.73 45.472H463.16L456.14 25.036H455.984L448.73 45.472ZM449.9 11.308H462.458L483.284 67H470.57L466.358 54.598H445.532L441.164 67H428.84L449.9 11.308ZM193.454 85.308H205.7V141H193.454V85.308ZM216.458 85.308H228.626L251.87 122.67H252.026V85.308H263.492V141H251.246L228.08 103.716H227.924V141H216.458V85.308ZM286.519 130.704H297.439C299.207 130.704 300.923 130.418 302.587 129.846C304.251 129.274 305.733 128.338 307.033 127.038C308.333 125.686 309.373 123.944 310.153 121.812C310.933 119.68 311.323 117.08 311.323 114.012C311.323 111.204 311.037 108.682 310.465 106.446C309.945 104.158 309.061 102.208 307.813 100.596C306.565 98.984 304.901 97.762 302.821 96.93C300.793 96.046 298.271 95.604 295.255 95.604H286.519V130.704ZM274.273 85.308H298.297C301.885 85.308 305.213 85.88 308.281 87.024C311.401 88.168 314.079 89.884 316.315 92.172C318.603 94.46 320.371 97.32 321.619 100.752C322.919 104.184 323.569 108.214 323.569 112.842C323.569 116.898 323.049 120.642 322.009 124.074C320.969 127.506 319.383 130.47 317.251 132.966C315.171 135.462 312.545 137.438 309.373 138.894C306.253 140.298 302.561 141 298.297 141H274.273V85.308ZM379.355 119.94C379.355 127.48 377.249 133.096 373.037 136.788C368.825 140.428 363.001 142.248 355.565 142.248C348.025 142.248 342.175 140.428 338.015 136.788C333.907 133.148 331.853 127.532 331.853 119.94V85.308H344.099V119.94C344.099 121.448 344.229 122.93 344.489 124.386C344.749 125.842 345.295 127.142 346.127 128.286C346.959 129.378 348.103 130.288 349.559 131.016C351.067 131.692 353.069 132.03 355.565 132.03C359.933 132.03 362.949 131.068 364.613 129.144C366.277 127.168 367.109 124.1 367.109 119.94V85.308H379.355V119.94ZM398.247 122.514C398.247 124.386 398.585 125.972 399.261 127.272C399.937 128.572 400.821 129.638 401.913 130.47C403.057 131.25 404.383 131.848 405.891 132.264C407.399 132.628 408.959 132.81 410.571 132.81C411.663 132.81 412.833 132.732 414.081 132.576C415.329 132.368 416.499 132.004 417.591 131.484C418.683 130.964 419.593 130.262 420.321 129.378C421.049 128.442 421.413 127.272 421.413 125.868C421.413 124.36 420.919 123.138 419.931 122.202C418.995 121.266 417.747 120.486 416.187 119.862C414.627 119.238 412.859 118.692 410.883 118.224C408.907 117.756 406.905 117.236 404.877 116.664C402.797 116.144 400.769 115.52 398.793 114.792C396.817 114.012 395.049 113.024 393.489 111.828C391.929 110.632 390.655 109.15 389.667 107.382C388.731 105.562 388.263 103.378 388.263 100.83C388.263 97.97 388.861 95.5 390.057 93.42C391.305 91.288 392.917 89.52 394.893 88.116C396.869 86.712 399.105 85.672 401.601 84.996C404.097 84.32 406.593 83.982 409.089 83.982C412.001 83.982 414.783 84.32 417.435 84.996C420.139 85.62 422.531 86.66 424.611 88.116C426.691 89.572 428.329 91.444 429.525 93.732C430.773 95.968 431.397 98.698 431.397 101.922H419.541C419.437 100.258 419.073 98.88 418.449 97.788C417.877 96.696 417.097 95.838 416.109 95.214C415.121 94.59 413.977 94.148 412.677 93.888C411.429 93.628 410.051 93.498 408.543 93.498C407.555 93.498 406.567 93.602 405.579 93.81C404.591 94.018 403.681 94.382 402.849 94.902C402.069 95.422 401.419 96.072 400.899 96.852C400.379 97.632 400.119 98.62 400.119 99.816C400.119 100.908 400.327 101.792 400.743 102.468C401.159 103.144 401.965 103.768 403.161 104.34C404.409 104.912 406.099 105.484 408.231 106.056C410.415 106.628 413.249 107.356 416.733 108.24C417.773 108.448 419.203 108.838 421.023 109.41C422.895 109.93 424.741 110.788 426.561 111.984C428.381 113.18 429.941 114.792 431.241 116.82C432.593 118.796 433.269 121.344 433.269 124.464C433.269 127.012 432.775 129.378 431.787 131.562C430.799 133.746 429.317 135.644 427.341 137.256C425.417 138.816 422.999 140.038 420.087 140.922C417.227 141.806 413.899 142.248 410.103 142.248C407.035 142.248 404.045 141.858 401.133 141.078C398.273 140.35 395.725 139.18 393.489 137.568C391.305 135.956 389.563 133.902 388.263 131.406C386.963 128.91 386.339 125.946 386.391 122.514H398.247ZM452.88 95.604H436.188V85.308H481.818V95.604H465.126V141H452.88V95.604ZM500.485 110.502H513.901C516.709 110.502 518.815 109.878 520.219 108.63C521.623 107.382 522.325 105.354 522.325 102.546C522.325 99.842 521.623 97.892 520.219 96.696C518.815 95.448 516.709 94.824 513.901 94.824H500.485V110.502ZM488.239 85.308H518.269C520.765 85.308 523.001 85.724 524.977 86.556C527.005 87.336 528.721 88.428 530.125 89.832C531.581 91.236 532.673 92.874 533.401 94.746C534.181 96.566 534.571 98.542 534.571 100.674C534.571 103.95 533.869 106.784 532.465 109.176C531.113 111.568 528.877 113.388 525.757 114.636V114.792C527.265 115.208 528.513 115.858 529.501 116.742C530.489 117.574 531.295 118.588 531.919 119.784C532.543 120.928 532.985 122.202 533.245 123.606C533.557 125.01 533.765 126.414 533.869 127.818C533.921 128.702 533.973 129.742 534.025 130.938C534.077 132.134 534.155 133.356 534.259 134.604C534.415 135.852 534.623 137.048 534.883 138.192C535.195 139.284 535.637 140.22 536.209 141H523.963C523.287 139.232 522.871 137.126 522.715 134.682C522.559 132.238 522.325 129.898 522.013 127.662C521.597 124.75 520.713 122.618 519.361 121.266C518.009 119.914 515.799 119.238 512.731 119.238H500.485V141H488.239V85.308ZM544.53 85.308H556.776V141H544.53V85.308ZM567.534 85.308H609.186V95.604H579.78V107.538H606.768V117.054H579.78V130.704H609.81V141H567.534V85.308ZM626.458 122.514C626.458 124.386 626.796 125.972 627.472 127.272C628.148 128.572 629.032 129.638 630.124 130.47C631.268 131.25 632.594 131.848 634.102 132.264C635.61 132.628 637.17 132.81 638.782 132.81C639.874 132.81 641.044 132.732 642.292 132.576C643.54 132.368 644.71 132.004 645.802 131.484C646.894 130.964 647.804 130.262 648.532 129.378C649.26 128.442 649.624 127.272 649.624 125.868C649.624 124.36 649.13 123.138 648.142 122.202C647.206 121.266 645.958 120.486 644.398 119.862C642.838 119.238 641.07 118.692 639.094 118.224C637.118 117.756 635.116 117.236 633.088 116.664C631.008 116.144 628.98 115.52 627.004 114.792C625.028 114.012 623.26 113.024 621.7 111.828C620.14 110.632 618.866 109.15 617.878 107.382C616.942 105.562 616.474 103.378 616.474 100.83C616.474 97.97 617.072 95.5 618.268 93.42C619.516 91.288 621.128 89.52 623.104 88.116C625.08 86.712 627.316 85.672 629.812 84.996C632.308 84.32 634.804 83.982 637.3 83.982C640.212 83.982 642.994 84.32 645.646 84.996C648.35 85.62 650.742 86.66 652.822 88.116C654.902 89.572 656.54 91.444 657.736 93.732C658.984 95.968 659.608 98.698 659.608 101.922H647.752C647.648 100.258 647.284 98.88 646.66 97.788C646.088 96.696 645.308 95.838 644.32 95.214C643.332 94.59 642.188 94.148 640.888 93.888C639.64 93.628 638.262 93.498 636.754 93.498C635.766 93.498 634.778 93.602 633.79 93.81C632.802 94.018 631.892 94.382 631.06 94.902C630.28 95.422 629.63 96.072 629.11 96.852C628.59 97.632 628.33 98.62 628.33 99.816C628.33 100.908 628.538 101.792 628.954 102.468C629.37 103.144 630.176 103.768 631.372 104.34C632.62 104.912 634.31 105.484 636.442 106.056C638.626 106.628 641.46 107.356 644.944 108.24C645.984 108.448 647.414 108.838 649.234 109.41C651.106 109.93 652.952 110.788 654.772 111.984C656.592 113.18 658.152 114.792 659.452 116.82C660.804 118.796 661.48 121.344 661.48 124.464C661.48 127.012 660.986 129.378 659.998 131.562C659.01 133.746 657.528 135.644 655.552 137.256C653.628 138.816 651.21 140.038 648.298 140.922C645.438 141.806 642.11 142.248 638.314 142.248C635.246 142.248 632.256 141.858 629.344 141.078C626.484 140.35 623.936 139.18 621.7 137.568C619.516 135.956 617.774 133.902 616.474 131.406C615.174 128.91 614.55 125.946 614.602 122.514H626.458Z" fill="white"/>
<path d="M72.3311 65.3369L96.5293 84.5801L82.25 70.375L161 9.04004V45.3779L113.426 82.4326L132.354 85.3389L147.968 90.0615L151.494 101.988L144.694 97.7646H136.131L123.898 105.503L123.918 105.519L121.968 106.725L119.56 108.249L119.537 108.229L99.5537 120.596L124.754 141H99.5537L84.3105 129.144L68.1152 141H23.8164L65.7334 113.473L0 64.0859V9L72.3311 65.3369Z" fill="white"/>
</svg>
